<svg xmlns="http://www.w3.org/2000/svg" width="675.8" height="682" viewBox="0 0 675.8 682"><g fill="#fff"><path d="M 337.9000244140625 677 C 304.0972900390625 677 270.7521057128906 671.9056396484375 238.7909393310547 661.8584594726562 C 207.8542022705078 652.13330078125 178.5113830566406 637.874267578125 151.5774841308594 619.4773559570312 C 125.0102081298828 601.3309326171875 101.1883850097656 579.4400634765625 80.77365875244141 554.412841796875 C 60.21138763427734 529.2046508789062 43.44238662719727 501.2223510742188 30.93256950378418 471.2433776855469 C 22.51284217834473 451.0661010742188 16.04484176635742 429.9421691894531 11.70838832855225 408.4584655761719 C 7.25702428817749 386.406005859375 5.000024318695068 363.709716796875 5.000024318695068 341 C 5.000024318695068 334.0974426269531 5.201842784881592 327.3501892089844 5.616933345794678 320.37255859375 C 6.903933525085449 298.7358093261719 10.27556991577148 277.1853637695312 15.63802433013916 256.31982421875 C 20.87766075134277 235.9322662353516 28.0834789276123 215.9380950927734 37.05538940429688 196.8927307128906 C 45.88638687133789 178.1463623046875 56.52493286132812 160.11181640625 68.67556762695312 143.2899017333984 C 80.73557281494141 126.5934524536133 94.40447998046875 110.9256362915039 109.3026580810547 96.72163391113281 C 124.2212066650391 82.49818420410156 140.5163879394531 69.60527038574219 157.7357482910156 58.40118026733398 C 175.1302947998047 47.08300018310547 193.6475677490234 37.37200164794922 212.7731170654297 29.5380916595459 C 232.2502899169922 21.56009101867676 252.5877532958984 15.43618202209473 273.2206726074219 11.33636379241943 C 294.3804016113281 7.131818294525146 316.1416625976562 5 337.9000244140625 5 C 360.4871215820312 5 383.0585632324219 7.296091079711914 404.9874877929688 11.82454586029053 C 426.35693359375 16.23754501342773 447.3767395019531 22.82236289978027 467.4630126953125 31.39609146118164 C 487.1866760253906 39.81499862670898 506.2105712890625 50.23563766479492 524.006591796875 62.36863708496094 C 541.6355590820312 74.3878173828125 558.2135009765625 88.19145202636719 573.2797241210938 103.3959121704102 C 588.3468627929688 118.6012725830078 602.0259399414062 135.3325500488281 613.9371337890625 153.1251831054688 C 625.9622192382812 171.0879058837891 636.2904052734375 190.2907257080078 644.6348266601562 210.2000885009766 C 653.1333618164062 230.4772796630859 659.6604614257812 251.6970977783203 664.0348510742188 273.270263671875 C 668.5238647460938 295.4089965820312 670.800048828125 318.196533203125 670.800048828125 341 C 670.800048828125 363.803466796875 668.5238647460938 386.5910034179688 664.0348510742188 408.729736328125 C 659.6604614257812 430.3029174804688 653.1333618164062 451.5227355957031 644.6348266601562 471.7998962402344 C 636.2904052734375 491.7092590332031 625.9622192382812 510.9120788574219 613.9371337890625 528.8748168945312 C 602.0259399414062 546.66748046875 588.3468627929688 563.3987426757812 573.2797241210938 578.6040649414062 C 558.2135009765625 593.8085327148438 541.6355590820312 607.6121826171875 524.006591796875 619.63134765625 C 506.2105712890625 631.7643432617188 487.1866760253906 642.1849975585938 467.4630126953125 650.6038818359375 C 447.3767395019531 659.1776123046875 426.35693359375 665.762451171875 404.9874877929688 670.1754760742188 C 383.0585632324219 674.7039184570312 360.4871215820312 677 337.9000244140625 677 Z" stroke="none"/><path d="M 337.9000244140625 10 C 164.7343139648438 10 20.97064208984375 146.4622802734375 10.608154296875 320.6694946289062 C 10.2012939453125 327.506591796875 10 334.2296142578125 10 341 C 10 385.5220947265625 18.59521484375 428.6943969726562 35.54693603515625 469.3179016113281 C 86.92535400390625 592.4425048828125 205.6059265136719 672 337.9000244140625 672 C 518.7047119140625 672 665.800048828125 523.5140380859375 665.800048828125 341 C 665.800048828125 158.4860229492188 518.7047119140625 10 337.9000244140625 10 M 337.9000244140625 0 C 524.5170288085938 0 675.800048828125 152.6708984375 675.800048828125 341 C 675.800048828125 529.3291015625 524.5170288085938 682 337.9000244140625 682 C 197.7506103515625 682 77.52960205078125 595.8934936523438 26.3182373046875 473.1688842773438 C 9.37969970703125 432.5770874023438 0 387.8938903808594 0 341 C 0 334.0317993164062 0.2071533203125 327.1124877929688 0.625732421875 320.0757141113281 C 11.24322509765625 141.582275390625 158.1878051757812 0 337.9000244140625 0 Z" stroke="none" fill="#000"/></g><g transform="translate(23.175 0.644)"><ellipse cx="69.292" cy="67.053" rx="69.292" ry="67.053" transform="translate(386.49 158.874)" fill="#ff6584"/><path d="M945.786,384.2c.157-.027.274-.131.456-.1a5.549,5.549,0,0,0-.311-.855l-.658.853Z" transform="translate(-293.618 -107.472)" fill="#fff"/><path d="M440.324,491.733a149.989,149.989,0,0,0,7.705,43.374c.107.326.22.647.332.973h28.756c-.031-.292-.061-.618-.092-.973-1.917-20.967-12.972-148.581.245-170.4C476.115,366.474,438.095,425.111,440.324,491.733Z" transform="translate(-264.223 -105.541)" fill="#e6e6e6"/><path d="M441.23,544.155c.24.326.491.652.746.973h21.572c-.164-.277-.353-.6-.573-.973-3.564-6.119-14.112-24.411-23.9-43.374C428.55,480.4,418.9,459.25,419.709,451.595,419.458,453.321,412.177,505.956,441.23,544.155Z" transform="translate(-262.971 -114.589)" fill="#e6e6e6"/><path d="M678.646,545.957a130.751,130.751,0,0,1-6.718,37.814c-.094.284-.192.564-.29.848h-25.07c.027-.254.053-.539.08-.848,1.672-18.28,11.309-129.535-.214-148.56C647.442,436.755,680.588,487.875,678.646,545.957Z" transform="translate(-276.225 -112.883)" fill="#e6e6e6"/><path d="M677.436,591.66c-.21.284-.428.568-.651.848H657.979c.143-.242.308-.526.5-.848,3.107-5.334,12.3-21.282,20.839-37.814,9.174-17.766,17.59-36.207,16.881-42.882C696.417,512.469,702.764,558.357,677.436,591.66Z" transform="translate(-276.897 -120.772)" fill="#e6e6e6"/><path d="M922.139,480.968c0,7.842.538,13.055,0,20.769-4.149,60.86-30.067,118.839-65.133,168.366q-6.874,9.745-14.435,18.943a328.7,328.7,0,0,1-43.314,43.7L730.213,691.6l-41.282-97.872S754.97,469.441,922.139,471.737C922.209,474.582,922.135,478.1,922.139,480.968Z" transform="translate(-278.698 -132.304)" fill="#3f3d56"/><path d="M918.174,502.7c-6.444,86.407-50.6,166.309-121.764,220.354L732.039,687.13,695.3,605.557S754.832,490.9,918.174,502.7Z" transform="translate(-279.069 -119.823)" fill="#44318d"/><path d="M832.708,662.981q-6.9,9.157-14.486,17.8A325.549,325.549,0,0,1,692.041,769.05q-14.876,5.834-30.451,10.289a373.946,373.946,0,0,1-226.264-13.665c-71.062-30.17-128.487-83.454-161.962-150.279a300.511,300.511,0,0,1-12.136-27.673c62.651-43.658,186.105-106.174,320.655-45.427q55.828,25.206,99.7,45.95C755.8,623.241,805.2,648.469,832.708,662.981Z" transform="translate(-253.805 -121.407)" fill="#3f3d56"/><path d="M818.973,683.682c-71.2,81.173-180.961,122.266-291.226,109.033S321.892,713.746,274.114,618.295c52.324-39.36,173.008-110.092,305.45-50.305q51.09,23.065,91.223,42.051C748.783,646.813,796.829,671.8,818.973,683.682Z" transform="translate(-254.555 -124.306)" fill="#44318d"/><path d="M728.74,770.673A336.4,336.4,0,0,1,570.687,809.5c-102.225-.039-198.519-45.659-260.143-123.244C388.381,678.45,603.537,667.923,728.74,770.673Z" transform="translate(-256.675 -138.541)" fill="#3f3d56"/><path d="M696.316,789c-42.4,16.584-86.312,24.918-130.438,24.023-85.637-1.737-169.9-36.4-231.175-98.311C363.015,710.759,585.289,683.59,696.316,789Z" transform="translate(-258.082 -141.36)" fill="#44318d"/><path d="M844.19,285.407h2.992c-232.9-181.482-502.731-53.735-504.792-52.754v-.011c61.084-64.369,143.959-100.479,230.34-100.363,102.019,0,194.566,48.906,254.381,126.214,4.831,6.244,10.921,12.943,15.064,19.925C843.462,280.589,842.661,282.995,844.19,285.407Z" transform="translate(-259.064 -126.544)" fill="#e6e6e6"/><path d="M677.6,216.408l11.691-8.895c-9.082-.953-12.814,3.759-14.341,7.488-7.1-2.8-14.82.87-14.82.87l23.392,8.078A16.937,16.937,0,0,0,677.6,216.408Z" transform="translate(-277.022 -89.16)" fill="#3f3d56"/></g></svg>